<svg width="26" height="26" viewBox="0 0 26 26" fill="none" xmlns="http://www.w3.org/2000/svg">
<path d="M15.9155 12.7324C15.9155 13.5766 15.5801 14.3862 14.9832 14.9832C14.3863 15.5801 13.5766 15.9155 12.7324 15.9155C11.8882 15.9155 11.0786 15.5801 10.4816 14.9832C9.88468 14.3862 9.54932 13.5766 9.54932 12.7324C9.54932 11.8882 9.88468 11.0785 10.4816 10.4816C11.0786 9.88465 11.8882 9.54929 12.7324 9.54929C13.5766 9.54929 14.3863 9.88465 14.9832 10.4816C15.5801 11.0785 15.9155 11.8882 15.9155 12.7324Z" stroke="#858585" stroke-linecap="round" stroke-linejoin="round"/>
<path d="M2.12207 12.7324C3.81972 8.38532 7.78373 5.30515 12.7324 5.30515C17.681 5.30515 21.6451 8.38532 23.3427 12.7324C21.6451 17.0794 17.681 20.1596 12.7324 20.1596C7.78373 20.1596 3.81972 17.0794 2.12207 12.7324Z" stroke="#858585" stroke-linecap="round" stroke-linejoin="round"/>
</svg>
